<svg width="439" height="439" viewBox="0 0 439 439" fill="none" xmlns="http://www.w3.org/2000/svg">
<g clip-path="url(#clip0_505_52)">
<path d="M329.25 347.542H109.75C99.6896 347.542 91.4583 339.31 91.4583 329.25V109.75C91.4583 99.6896 99.6896 91.4583 109.75 91.4583H201.208C211.269 91.4583 219.5 83.2271 219.5 73.1667C219.5 63.1062 211.269 54.875 201.208 54.875H91.4583C71.1546 54.875 54.875 71.3375 54.875 91.4583V347.542C54.875 367.662 71.3375 384.125 91.4583 384.125H347.542C367.662 384.125 384.125 367.662 384.125 347.542V237.792C384.125 227.731 375.894 219.5 365.833 219.5C355.773 219.5 347.542 227.731 347.542 237.792V329.25C347.542 339.31 339.31 347.542 329.25 347.542ZM256.083 73.1667C256.083 83.2271 264.315 91.4583 274.375 91.4583H321.75L154.747 258.461C147.614 265.595 147.614 277.119 154.747 284.252C161.881 291.386 173.405 291.386 180.539 284.252L347.542 117.25V164.625C347.542 174.685 355.773 182.917 365.833 182.917C375.894 182.917 384.125 174.685 384.125 164.625V73.1667C384.125 63.1062 375.894 54.875 365.833 54.875H274.375C264.315 54.875 256.083 63.1062 256.083 73.1667Z" fill="#5F6368"/>
</g>
<defs>
<clipPath id="clip0_505_52">
<rect width="439" height="439" fill="white"/>
</clipPath>
</defs>
</svg>
